<?xml version="1.0" encoding="UTF-8"?>
<svg xmlns="http://www.w3.org/2000/svg" viewBox="0 0 500 400" fill="none">
  <circle cx="50" cy="50" r="6" fill="#FFD43B"/>
  <circle cx="440" cy="80" r="5" fill="#FFC83D"/>
  <path d="M40 140 L50 150 M45 135 L45 155" stroke="#FFC83D" stroke-width="3" stroke-linecap="round"/>
  <path d="M455 320 L470 330 M460 320 L465 335" stroke="#FFD43B" stroke-width="3" stroke-linecap="round"/>
  <circle cx="470" cy="200" r="4" fill="#FFD43B"/>
  <circle cx="30" cy="320" r="5" fill="#FFE89E"/>

  <path d="M130 180 L350 180 L320 130 L160 130 Z" fill="#C49260" stroke="#1A1A1A" stroke-width="4" stroke-linejoin="round"/>
  <path d="M120 180 L360 180 L370 360 L110 360 Z" fill="#D4A06A" stroke="#1A1A1A" stroke-width="4" stroke-linejoin="round"/>
  <rect x="180" y="250" width="120" height="40" fill="#FFF8E7" stroke="#1A1A1A" stroke-width="3" rx="6"/>
  <text x="240" y="278" text-anchor="middle" font-family="sans-serif" font-size="18" font-weight="700" fill="#1A1A1A">有人要吗</text>

  <g transform="translate(170 90)">
    <rect x="0" y="20" width="60" height="40" fill="#A8D5B5" stroke="#1A1A1A" stroke-width="3" rx="4"/>
    <rect x="0" y="0" width="60" height="22" fill="#A8D5B5" stroke="#1A1A1A" stroke-width="3" rx="4"/>
    <line x1="5" y1="60" x2="5" y2="80" stroke="#1A1A1A" stroke-width="3"/>
    <line x1="55" y1="60" x2="55" y2="80" stroke="#1A1A1A" stroke-width="3"/>
  </g>

  <g transform="translate(280 60)">
    <path d="M0 0 L40 0 L35 30 L5 30 Z" fill="#FFD43B" stroke="#1A1A1A" stroke-width="3" stroke-linejoin="round"/>
    <line x1="20" y1="30" x2="20" y2="100" stroke="#1A1A1A" stroke-width="3"/>
    <ellipse cx="20" cy="105" rx="14" ry="4" fill="#1A1A1A"/>
  </g>

  <g transform="translate(50 80)">
    <path d="M8 10 Q8 -8 28 -8 Q48 -8 48 10" fill="none" stroke="#1A1A1A" stroke-width="3"/>
    <rect x="0" y="10" width="56" height="46" rx="5" fill="#F4B5CC" stroke="#1A1A1A" stroke-width="3"/>
  </g>

  <g transform="translate(370 130)">
    <rect x="0" y="0" width="60" height="42" rx="6" fill="#3F3F3F" stroke="#1A1A1A" stroke-width="3"/>
    <circle cx="30" cy="21" r="11" fill="#6A6A6A" stroke="#1A1A1A" stroke-width="2"/>
    <circle cx="30" cy="21" r="5" fill="#1A1A1A"/>
    <rect x="4" y="-5" width="14" height="7" rx="2" fill="#3F3F3F" stroke="#1A1A1A" stroke-width="2"/>
  </g>

  <g transform="translate(50 200)">
    <path d="M10 0 L65 0 Q80 0 80 15 L80 28 Q70 32 60 28 L50 24 L25 24 L15 28 Q5 32 -5 28 L-5 15 Q-5 0 10 0 Z" fill="#FAFAFA" stroke="#1A1A1A" stroke-width="3" stroke-linejoin="round"/>
    <circle cx="60" cy="12" r="3" fill="#1A1A1A"/>
    <circle cx="70" cy="12" r="3" fill="#1A1A1A"/>
    <rect x="10" y="9" width="4" height="10" fill="#1A1A1A"/>
    <rect x="6" y="13" width="12" height="3" fill="#1A1A1A"/>
  </g>

  <g transform="translate(140 320)">
    <path d="M0 15 Q-5 5 5 0 L55 -3 Q75 0 80 18 L80 28 L0 28 Z" fill="#FAFAFA" stroke="#1A1A1A" stroke-width="3" stroke-linejoin="round"/>
    <path d="M5 10 L20 5 M25 5 L40 0 M45 0 L60 -1" stroke="#1A1A1A" stroke-width="2" stroke-linecap="round"/>
  </g>

  <g transform="translate(295 200)">
    <rect x="0" y="0" width="30" height="50" rx="5" fill="#5BA8D9" stroke="#1A1A1A" stroke-width="3"/>
    <circle cx="15" cy="44" r="2" fill="#1A1A1A"/>
    <rect x="6" y="6" width="18" height="30" fill="#FFF" stroke="#1A1A1A" stroke-width="1.5"/>
  </g>
</svg>
